<?xml version="1.0" standalone="no"?>
<!DOCTYPE svg PUBLIC "-//W3C//DTD SVG 20010904//EN"
 "http://www.w3.org/TR/2001/REC-SVG-20010904/DTD/svg10.dtd">
<svg version="1.0" xmlns="http://www.w3.org/2000/svg" width="1000.000000pt" height="1000.000000pt" viewBox="0 0 1000.000000 1000.000000" preserveAspectRatio="xMidYMid meet">
  <g transform="translate(0.000000,1000.000000) scale(0.100000,-0.100000)" fill="#EFF8E2" stroke="none">
    <path d="M4716 9990 c-1535 -96 -2905 -856 -3797 -2108 -277 -387 -536 -907 -683 -1370 -158 -500 -230 -971 -230 -1517 0 -279 8 -419 40 -663 103 -798 418 -1593 889 -2248 861 -1195 2182 -1948 3640 -2074 225 -19 838 -9 1042 18 792 106 1491 363 2140 789 459 301 904 718 1246 1170 562 743 910 1657 988 2598 16 194 6 817 -15 985 -76 597 -222 1094 -470 1605 -252 518 -557 946 -966 1356 -828 829 -1896 1332 -3065 1444 -198 19 -576 26 -759 15z m629 -640 c1061 -90 2011 -531 2755 -1279 699 -703 1121 -1577 1245 -2581 22 -174 31 -629 16 -816 -98 -1231 -679 -2329 -1637 -3094 -639 -511 -1389 -823 -2224 -927 -209 -26 -783 -26 -990 0 -986 123 -1848 533 -2548 1211 -722 700 -1171 1612 -1299 2636 -26 208 -26 782 0 990 104 835 416 1585 927 2224 755 946 1849 1531 3060 1635 139 12 556 12 695 1z"/>
    
    <path d="M4615 8584 c-540 -55 -979 -216 -1355 -497 -121 -91 -327 -296 -413 -412 -129 -174 -185 -312 -194 -481 -19 -339 206 -620 565 -705 119 -29 272 -23 387 14 140 46 269 138 352 251 125 171 266 269 488 339 258 81 608 74 870 -16 269 -93 466 -269 551 -493 93 -245 63 -532 -77 -749 -107 -166 -250 -301 -413 -392 -126 -71 -276 -172 -386 -259 -107 -86 -305 -283 -394 -394 -89 -111 -218 -306 -262 -395 -97 -199 -125 -544 -60 -750 54 -169 158 -292 309 -364 120 -57 189 -72 367 -78 189 -7 271 10 425 86 226 112 365 284 424 524 45 185 111 268 306 384 602 358 1035 918 1189 1538 49 197 61 304 60 545 0 253 -13 367 -69 585 -210 820 -870 1436 -1767 1650 -210 50 -355 67 -618 70 -135 2 -263 1 -285 -1z"/>
    
    <path d="M4905 2830 c-127 -18 -246 -70 -348 -152 -176 -142 -270 -339 -269 -563 1 -201 69 -363 212 -506 141 -141 304 -208 507 -209 116 0 206 20 308 70 198 96 344 279 390 486 26 114 17 282 -20 393 -74 220 -277 409 -500 465 -78 20 -204 27 -280 16z"/>
  </g>
</svg>
